<svg xmlns="http://www.w3.org/2000/svg" viewBox="0 0 1733 2463" width="2111" height="3000"><style>tspan { white-space:pre }.shp0 { fill: #00324c } </style><path class="shp0" d="M821.5 1.06C813.8 1.48 798.95 2.56 788.5 3.46C778.05 4.36 762.53 5.99 754 7.09C745.47 8.18 731.75 10.21 723.5 11.59C715.25 12.98 700.63 15.7 691 17.63C681.38 19.57 664.72 23.39 654 26.12C643.28 28.85 630.67 32.23 626 33.63C621.33 35.03 610.97 38.22 603 40.72C595.03 43.22 581.97 47.63 574 50.51C566.03 53.39 554.1 57.89 547.5 60.5C540.9 63.11 529.2 67.93 521.5 71.21C513.8 74.49 495.8 82.95 481.5 90.01C467.2 97.07 446.95 107.75 436.5 113.73C426.05 119.71 410.53 129.04 402 134.45C393.48 139.86 380.65 148.35 373.5 153.31C366.35 158.27 354.2 167.06 346.5 172.84C338.8 178.62 325.3 189.27 316.5 196.52C307.7 203.76 295.55 214.12 289.5 219.54C283.45 224.95 269.57 238.19 258.66 248.94C247.74 259.7 232.89 274.97 225.66 282.88C218.42 290.78 206.42 304.55 199 313.46C191.58 322.37 180.29 336.6 173.93 345.08C167.56 353.56 158.75 365.67 154.35 372C149.96 378.33 142.3 389.8 137.33 397.5C132.37 405.2 124.49 418.02 119.83 426C115.17 433.98 108.04 446.58 103.98 454C99.92 461.42 92.24 476.5 86.91 487.5C81.58 498.5 73.6 516.05 69.19 526.5C64.78 536.95 59.28 550.45 56.98 556.5C54.68 562.55 50.79 573.13 48.34 580C45.89 586.88 41.26 601.05 38.04 611.5C34.83 621.95 30.37 637.48 28.14 646C25.9 654.52 22.52 668.48 20.62 677C18.72 685.52 15.8 699.92 14.14 709C12.48 718.08 9.98 733.6 8.58 743.5C7.18 753.4 5.37 768.02 4.57 776C3.76 783.98 2.53 797.92 1.82 807C1.06 816.83 0.55 840.89 0.55 866.5C0.55 892.11 1.06 916.17 1.82 926C2.53 935.08 3.76 949.03 4.57 957C5.38 964.97 6.95 978.03 8.05 986C9.15 993.97 10.97 1005.9 12.09 1012.5C13.21 1019.1 15.48 1031.25 17.14 1039.5C18.8 1047.75 21.72 1061.03 23.63 1069C25.53 1076.97 29.58 1092.28 32.61 1103C35.65 1113.72 41 1131.05 44.51 1141.5C48.01 1151.95 53.55 1167.47 56.82 1176C60.09 1184.53 66.23 1199.6 70.47 1209.5C74.71 1219.4 82.33 1236.05 87.4 1246.5C92.48 1256.95 100.82 1273.15 105.94 1282.5C111.07 1291.85 119.33 1306.25 124.3 1314.5C129.27 1322.75 138.28 1336.92 144.33 1346C150.37 1355.08 159.86 1368.75 165.41 1376.38C170.96 1384.02 181.35 1397.58 188.5 1406.52C195.65 1415.47 207.35 1429.47 214.5 1437.64C221.65 1445.81 236.72 1461.89 248 1473.37C259.27 1484.84 274.8 1499.99 282.5 1507.02C290.2 1514.05 302.8 1525.09 310.5 1531.56C318.2 1538.02 330.13 1547.66 337 1552.98C343.88 1558.3 355.35 1566.84 362.5 1571.95C369.65 1577.07 381.8 1585.41 389.5 1590.48C397.2 1595.55 411.38 1604.43 421 1610.2C430.63 1615.98 445.25 1624.35 453.5 1628.8C461.75 1633.25 477.28 1641.14 488 1646.34C498.72 1651.54 515.6 1659.25 525.5 1663.48C535.4 1667.71 552.95 1674.68 564.5 1678.97C576.05 1683.27 591.13 1688.6 598 1690.82C604.88 1693.04 617.47 1696.88 626 1699.35C634.53 1701.82 647.13 1705.26 654 1706.99C660.88 1708.73 673.47 1711.67 682 1713.52C690.53 1715.38 705.38 1718.26 715 1719.93C724.63 1721.59 740.83 1724.06 751 1725.42C761.17 1726.77 776.92 1728.58 786 1729.44C795.08 1730.29 811.72 1731.44 823 1732C834.28 1732.55 848.56 1733 854.75 1733L866 1733L866 1333C854.76 1332.98 844.75 1332.51 836.5 1331.96C828.25 1331.4 815.88 1330.26 809 1329.42C802.13 1328.59 791.33 1326.99 785 1325.88C778.67 1324.77 768.55 1322.74 762.5 1321.37C756.45 1320 745.42 1317.12 738 1314.97C730.58 1312.82 720 1309.54 714.5 1307.67C709 1305.79 699.1 1302.13 692.5 1299.52C685.9 1296.9 672.85 1291.08 663.5 1286.57C654.15 1282.06 641.55 1275.53 635.5 1272.05C629.45 1268.58 617.53 1261.14 609 1255.52C600.47 1249.89 588.1 1241.1 581.5 1235.97C574.9 1230.84 565.9 1223.49 561.5 1219.64C557.1 1215.79 547.27 1206.53 539.66 1199.07C532.05 1191.61 521.45 1180.55 516.11 1174.5C510.77 1168.45 502.19 1158.1 497.05 1151.5C491.91 1144.9 483.11 1132.53 477.48 1124C471.86 1115.47 464.42 1103.55 460.95 1097.5C457.47 1091.45 451.17 1079.3 446.94 1070.5C442.7 1061.7 436.87 1048.65 433.98 1041.5C431.09 1034.35 426.97 1023.33 424.83 1017C422.69 1010.67 419.41 1000.1 417.54 993.5C415.67 986.9 413.02 976.55 411.66 970.5C410.3 964.45 408.27 954.33 407.17 948C406.06 941.67 404.44 930.65 403.58 923.5C402.72 916.35 401.56 903.3 401.01 894.5C400.45 885.7 400 872.76 400 865.75C400 858.74 400.46 846.14 401.01 837.75C401.57 829.36 402.71 816.88 403.54 810C404.37 803.13 405.94 792.33 407.03 786C408.12 779.67 410.18 769.33 411.61 763C413.04 756.67 415.72 746.1 417.57 739.5C419.42 732.9 422.69 722.33 424.83 716C426.97 709.67 431.08 698.65 433.96 691.5C436.84 684.35 443.39 669.95 448.51 659.5C453.63 649.05 461.36 634.65 465.68 627.5C470.01 620.35 475.96 610.9 478.9 606.5C481.85 602.1 488.66 592.65 494.04 585.5C499.43 578.35 507.52 568.23 512.02 563C516.52 557.77 526.57 547.05 534.35 539.17C542.13 531.29 553.22 520.69 559 515.6C564.78 510.52 573.78 503 579 498.89C584.22 494.79 593 488.26 598.5 484.39C604 480.52 613.22 474.42 619 470.85C624.78 467.27 633.55 462.04 638.5 459.23C643.45 456.42 654.92 450.54 664 446.16C673.08 441.79 685.9 436.08 692.5 433.47C699.1 430.87 709.67 426.98 716 424.83C722.33 422.69 732.9 419.41 739.5 417.54C746.1 415.67 756.67 412.97 763 411.55C769.33 410.12 779.67 408.08 786 407.02C792.33 405.96 802.9 404.41 809.5 403.58C816.1 402.75 828.36 401.61 836.75 401.04C845.14 400.47 858.53 400 866.5 400C874.47 400 887.86 400.47 896.25 401.04C904.64 401.61 916.9 402.75 923.5 403.58C930.1 404.41 940.67 405.96 947 407.02C953.33 408.08 963.67 410.12 970 411.55C976.33 412.97 986.9 415.67 993.5 417.54C1000.1 419.41 1010.67 422.69 1017 424.84C1023.33 427 1033.9 430.89 1040.5 433.51C1047.1 436.12 1059.92 441.83 1069 446.19C1078.08 450.55 1089.55 456.42 1094.5 459.23C1099.45 462.04 1108.22 467.27 1114 470.85C1119.78 474.42 1129 480.52 1134.5 484.39C1140 488.26 1148.78 494.79 1154 498.89C1159.22 502.99 1166.65 509.06 1170.5 512.38C1174.35 515.7 1184.19 524.96 1192.36 532.96C1200.53 540.96 1211.56 552.45 1216.88 558.5C1222.2 564.55 1229.73 573.55 1233.62 578.5C1237.52 583.45 1243.6 591.55 1247.15 596.5C1250.69 601.45 1256.98 610.9 1261.12 617.5C1265.26 624.1 1270.95 633.55 1273.77 638.5C1276.58 643.45 1282.23 654.48 1286.32 663C1290.41 671.52 1296.12 684.35 1299.01 691.5C1301.91 698.65 1306.03 709.67 1308.17 716C1310.31 722.33 1313.58 732.9 1315.43 739.5C1317.28 746.1 1319.77 755.77 1320.98 761C1322.18 766.23 1324.04 775.23 1325.1 781C1326.16 786.77 1327.9 798.03 1328.96 806C1330.03 813.97 1331.48 830.25 1332.2 842.18C1332.91 854.1 1333.28 864.13 1333 864.46C1332.72 864.8 1326.65 861.53 1319.5 857.19C1312.35 852.86 1298.17 844.66 1288 838.98C1277.83 833.29 1259.6 823.82 1247.5 817.93C1235.4 812.04 1219.2 804.53 1211.5 801.24C1203.8 797.94 1192.1 793.11 1185.5 790.5C1178.9 787.88 1166.3 783.17 1157.5 780.02C1148.7 776.87 1135.65 772.45 1128.5 770.2C1121.35 767.96 1108.08 764.02 1099 761.47C1089.92 758.91 1076.2 755.31 1068.5 753.47C1060.8 751.62 1047.75 748.77 1039.5 747.12C1031.25 745.47 1017.75 742.99 1009.5 741.6C1001.25 740.22 985.28 737.98 974 736.61C962.72 735.25 947.42 733.65 940 733.06C932.58 732.46 918.63 731.54 909 731C899.38 730.47 885.76 730.02 878.75 730.01L866 730L866 1130C877.63 1130 887.86 1130.47 896.25 1131.04C904.64 1131.61 916.9 1132.75 923.5 1133.58C930.1 1134.41 940.67 1135.96 947 1137.02C953.33 1138.08 963.67 1140.12 970 1141.55C976.33 1142.97 986.9 1145.67 993.5 1147.54C1000.1 1149.41 1010.67 1152.69 1017 1154.84C1023.33 1157 1033.9 1160.89 1040.5 1163.51C1047.1 1166.12 1059.92 1171.83 1069 1176.19C1078.08 1180.55 1089.55 1186.42 1094.5 1189.23C1099.45 1192.04 1108.22 1197.27 1114 1200.85C1119.78 1204.42 1129 1210.52 1134.5 1214.39C1140 1218.26 1148.78 1224.79 1154 1228.89C1159.22 1232.99 1166.65 1239.06 1170.5 1242.38C1174.35 1245.7 1184.19 1254.96 1192.36 1262.96C1200.53 1270.96 1211.56 1282.45 1216.88 1288.5C1222.2 1294.55 1229.73 1303.55 1233.62 1308.5C1237.52 1313.45 1243.6 1321.55 1247.15 1326.5C1250.69 1331.45 1256.98 1340.9 1261.12 1347.5C1265.26 1354.1 1270.95 1363.55 1273.77 1368.5C1276.58 1373.45 1282.23 1384.47 1286.32 1393C1290.41 1401.53 1296.12 1414.35 1299.01 1421.5C1301.91 1428.65 1306.03 1439.67 1308.17 1446C1310.31 1452.33 1313.58 1462.9 1315.43 1469.5C1317.28 1476.1 1319.77 1485.78 1320.98 1491C1322.18 1496.22 1324.04 1505.22 1325.1 1511C1326.16 1516.78 1327.9 1528.03 1328.97 1536C1330.04 1543.97 1331.47 1560.63 1332.15 1573C1333.12 1590.67 1333.13 1600.44 1332.19 1618.5C1331.54 1631.15 1330.3 1646.9 1329.46 1653.5C1328.61 1660.1 1327 1670.9 1325.89 1677.5C1324.77 1684.1 1322.56 1695.13 1320.96 1702C1319.37 1708.88 1316.27 1720.58 1314.08 1728C1311.89 1735.42 1308.79 1745.33 1307.19 1750C1305.58 1754.67 1301.91 1764.35 1299.01 1771.5C1296.12 1778.65 1290.41 1791.47 1286.32 1800C1282.23 1808.53 1275.66 1821.13 1271.73 1828C1267.79 1834.88 1259.9 1847.47 1254.18 1856C1248.47 1864.53 1239.92 1876.45 1235.19 1882.5C1230.46 1888.55 1222 1898.68 1216.38 1905C1210.77 1911.32 1200.17 1922.38 1192.84 1929.57C1185.5 1936.76 1175.9 1945.79 1171.5 1949.64C1167.1 1953.49 1158.1 1960.84 1151.5 1965.97C1144.9 1971.1 1132.53 1979.89 1124 1985.52C1115.47 1991.14 1103.55 1998.58 1097.5 2002.05C1091.45 2005.53 1078.85 2012.06 1069.5 2016.57C1060.15 2021.08 1047.1 2026.9 1040.5 2029.52C1033.9 2032.13 1024 2035.79 1018.5 2037.67C1013 2039.54 1002.42 2042.82 995 2044.97C987.58 2047.12 976.55 2050 970.5 2051.37C964.45 2052.74 954.33 2054.77 948 2055.88C941.67 2056.99 930.88 2058.59 924 2059.42C917.13 2060.26 904.75 2061.4 896.5 2061.96C888.25 2062.51 874.75 2062.97 866.5 2062.97C858.25 2062.97 844.75 2062.51 836.5 2061.96C828.25 2061.4 815.88 2060.26 809 2059.42C802.13 2058.59 791.33 2056.99 785 2055.88C778.67 2054.77 768.55 2052.74 762.5 2051.37C756.45 2050 745.42 2047.12 738 2044.97C730.58 2042.82 720 2039.54 714.5 2037.67C709 2035.79 699.1 2032.13 692.5 2029.52C685.9 2026.9 672.85 2021.08 663.5 2016.57C654.15 2012.06 641.55 2005.53 635.5 2002.05C629.45 1998.58 617.53 1991.14 609 1985.52C600.47 1979.89 588.1 1971.1 581.5 1965.97C574.9 1960.84 565.9 1953.49 561.5 1949.64C557.1 1945.79 547.27 1936.53 539.66 1929.07C532.05 1921.61 521.45 1910.55 516.11 1904.5C510.77 1898.45 502.19 1888.1 497.05 1881.5C491.91 1874.9 483.11 1862.53 477.48 1854C471.86 1845.47 464.42 1833.55 460.95 1827.5C457.47 1821.45 451.17 1809.3 446.94 1800.5C442.7 1791.7 436.87 1778.65 433.98 1771.5C431.09 1764.35 426.97 1753.33 424.83 1747C422.69 1740.67 419.41 1730.1 417.54 1723.5C415.67 1716.9 413.02 1706.55 411.66 1700.5C410.29 1694.45 408.24 1684.1 407.1 1677.5C405.96 1670.9 404.37 1660.33 403.57 1654C402.76 1647.67 401.52 1632.49 400.8 1620.25L399.5 1597.99L-0.5 1597.99C0.69 1633.26 1.48 1649.8 2.04 1657.5C2.59 1665.2 3.72 1678.25 4.54 1686.5C5.37 1694.75 6.95 1708.03 8.05 1716C9.15 1723.97 10.97 1735.9 12.09 1742.5C13.21 1749.1 15.48 1761.25 17.14 1769.5C18.8 1777.75 21.72 1791.03 23.63 1799C25.53 1806.97 29.58 1822.28 32.61 1833C35.65 1843.72 41 1861.05 44.51 1871.5C48.01 1881.95 53.55 1897.47 56.82 1906C60.09 1914.53 66.23 1929.6 70.47 1939.5C74.71 1949.4 82.33 1966.05 87.4 1976.5C92.48 1986.95 100.82 2003.15 105.94 2012.5C111.07 2021.85 119.33 2036.25 124.3 2044.5C129.27 2052.75 138.28 2066.93 144.33 2076C150.37 2085.07 159.86 2098.75 165.41 2106.38C170.96 2114.02 181.35 2127.58 188.5 2136.52C195.65 2145.47 207.35 2159.47 214.5 2167.64C221.65 2175.81 236.72 2191.89 248 2203.37C259.27 2214.84 274.8 2229.99 282.5 2237.02C290.2 2244.05 302.8 2255.09 310.5 2261.56C318.2 2268.02 330.13 2277.66 337 2282.98C343.88 2288.3 355.35 2296.84 362.5 2301.95C369.65 2307.07 381.8 2315.41 389.5 2320.48C397.2 2325.55 411.38 2334.43 421 2340.2C430.63 2345.98 445.25 2354.35 453.5 2358.8C461.75 2363.25 477.28 2371.14 488 2376.34C498.72 2381.54 515.6 2389.25 525.5 2393.48C535.4 2397.71 552.95 2404.68 564.5 2408.97C576.05 2413.27 591.13 2418.6 598 2420.82C604.88 2423.04 617.47 2426.88 626 2429.35C634.53 2431.82 647.13 2435.26 654 2436.99C660.88 2438.73 673.47 2441.67 682 2443.52C690.53 2445.38 705.38 2448.26 715 2449.93C724.63 2451.59 740.83 2454.06 751 2455.42C761.17 2456.77 776.92 2458.58 786 2459.44C795.08 2460.29 811.72 2461.44 823 2462C834.28 2462.55 853.85 2463.01 866.5 2463.01C879.15 2463.01 898.72 2462.55 910 2462C921.28 2461.44 937.92 2460.29 947 2459.44C956.08 2458.58 971.83 2456.77 982 2455.42C992.17 2454.06 1008.38 2451.59 1018 2449.93C1027.63 2448.26 1042.7 2445.34 1051.5 2443.42C1060.3 2441.51 1074.47 2438.14 1083 2435.93C1091.53 2433.72 1106.15 2429.64 1115.5 2426.85C1124.85 2424.06 1140.83 2418.86 1151 2415.29C1161.17 2411.73 1175.58 2406.43 1183 2403.52C1190.42 2400.61 1203.03 2395.43 1211 2392.01C1218.97 2388.59 1234.28 2381.53 1245 2376.34C1255.72 2371.14 1271.25 2363.25 1279.5 2358.8C1287.75 2354.35 1302.38 2345.98 1312 2340.2C1321.63 2334.43 1335.8 2325.55 1343.5 2320.48C1351.2 2315.41 1363.35 2307.07 1370.5 2301.95C1377.65 2296.84 1389.13 2288.3 1396 2282.98C1402.88 2277.66 1414.8 2268.02 1422.5 2261.56C1430.2 2255.09 1442.8 2244.05 1450.5 2237.02C1458.2 2229.99 1473.73 2214.84 1485 2203.37C1496.28 2191.89 1511.21 2175.97 1518.18 2168C1525.15 2160.03 1535.24 2148.1 1540.6 2141.5C1545.95 2134.9 1555.71 2122.3 1562.27 2113.5C1568.84 2104.7 1579.04 2090.3 1584.95 2081.5C1590.86 2072.7 1598.52 2061 1601.98 2055.5C1605.43 2050 1612.41 2038.3 1617.48 2029.5C1622.54 2020.7 1630.78 2005.63 1635.78 1996C1640.78 1986.38 1648.11 1971.53 1652.05 1963C1656 1954.47 1662.14 1940.53 1665.7 1932C1669.25 1923.47 1674.64 1909.97 1677.66 1902C1680.69 1894.03 1685.83 1879.51 1689.08 1869.75C1692.34 1859.99 1697.45 1843.34 1700.45 1832.75C1703.45 1822.16 1707.7 1805.85 1709.88 1796.5C1712.06 1787.15 1715.24 1772.53 1716.93 1764C1718.62 1755.47 1721.13 1741.3 1722.51 1732.5C1723.88 1723.7 1726.11 1706.6 1727.46 1694.5C1728.82 1682.4 1730.4 1665.75 1730.98 1657.5C1731.57 1649.25 1732.32 1628.78 1732.66 1612C1733.03 1593.54 1732.81 1572.03 1732.1 1557.5C1731.46 1544.3 1730.25 1525.85 1729.41 1516.5C1728.58 1507.15 1727.23 1494.33 1726.42 1488C1725.61 1481.67 1723.8 1469.08 1722.39 1460C1720.99 1450.92 1718.32 1435.85 1716.46 1426.5C1714.59 1417.15 1711.45 1402.75 1709.49 1394.5C1707.52 1386.25 1703.43 1370.72 1700.4 1360C1697.36 1349.28 1692.26 1332.63 1689.04 1323C1685.83 1313.38 1680.73 1298.97 1677.69 1291C1674.66 1283.03 1669.17 1269.3 1665.5 1260.5C1661.83 1251.7 1656.33 1239.1 1653.28 1232.5C1650.23 1225.9 1644.81 1214.65 1641.23 1207.5C1637.65 1200.35 1630.9 1187.53 1626.23 1179C1621.55 1170.47 1613.68 1156.75 1608.73 1148.5C1603.77 1140.25 1594.33 1125.4 1587.75 1115.5C1581.16 1105.6 1569.38 1088.95 1561.56 1078.5C1553.75 1068.05 1541.31 1052.24 1533.93 1043.38C1526.54 1034.51 1514.59 1020.78 1507.37 1012.88C1500.14 1004.97 1484.61 989.05 1472.85 977.5C1461.08 965.95 1446.29 951.96 1439.98 946.41C1433.67 940.86 1422.2 931.16 1414.5 924.84C1406.8 918.52 1392.63 907.49 1383 900.32C1373.38 893.14 1358.53 882.6 1350 876.89L1334.5 866.5L1733 866C1733 850.11 1732.55 836.28 1731.99 825C1731.43 813.72 1730.28 796.63 1729.44 787C1728.59 777.38 1727.23 764.33 1726.42 758C1725.61 751.67 1723.8 739.08 1722.39 730C1720.99 720.92 1718.32 705.85 1716.46 696.5C1714.59 687.15 1711.45 672.75 1709.49 664.5C1707.52 656.25 1703.43 640.73 1700.4 630C1697.36 619.27 1692.26 602.63 1689.04 593C1685.83 583.38 1680.73 568.98 1677.69 561C1674.66 553.02 1669.17 539.3 1665.5 530.5C1661.83 521.7 1656.33 509.1 1653.28 502.5C1650.23 495.9 1644.81 484.65 1641.23 477.5C1637.65 470.35 1630.9 457.52 1626.23 449C1621.55 440.48 1613.68 426.75 1608.73 418.5C1603.77 410.25 1594.33 395.4 1587.75 385.5C1581.16 375.6 1569.38 358.95 1561.56 348.5C1553.75 338.05 1541.31 322.24 1533.93 313.38C1526.54 304.51 1514.59 290.78 1507.37 282.88C1500.14 274.97 1484.61 259.05 1472.85 247.5C1461.08 235.95 1446.29 221.96 1439.98 216.41C1433.67 210.86 1422.2 201.16 1414.5 194.84C1406.8 188.52 1392.63 177.48 1383 170.31C1373.38 163.13 1357.4 151.87 1347.5 145.27C1337.6 138.67 1322.75 129.23 1314.5 124.28C1306.25 119.34 1292.3 111.31 1283.5 106.45C1274.7 101.6 1258.05 93.03 1246.5 87.42C1234.95 81.81 1219.2 74.53 1211.5 71.24C1203.8 67.95 1192.1 63.11 1185.5 60.5C1178.9 57.88 1166.3 53.17 1157.5 50.02C1148.7 46.87 1135.65 42.45 1128.5 40.2C1121.35 37.96 1108.08 34.02 1099 31.47C1089.92 28.91 1076.2 25.31 1068.5 23.47C1060.8 21.62 1047.75 18.77 1039.5 17.12C1031.25 15.47 1017.75 12.99 1009.5 11.6C1001.25 10.22 985.28 7.98 974 6.61C962.72 5.25 947.42 3.65 940 3.06C932.58 2.46 918.63 1.54 909 1C899.38 0.47 878.9 0.09 863.5 0.16C848.1 0.24 829.2 0.64 821.5 1.06Z" /></svg>